<mxfile host="app.diagrams.net" agent="Mozilla/5.0 (Macintosh; Intel Mac OS X 10_15_7) AppleWebKit/537.36 (KHTML, like Gecko) Chrome/139.0.0.0 Safari/537.36" version="28.2.5">
  <diagram name="第 1 页" id="QZIYYSBZrZkQbgkNPsQI">
    <mxGraphModel dx="2728" dy="1021" grid="1" gridSize="10" guides="1" tooltips="1" connect="1" arrows="1" fold="1" page="1" pageScale="1" pageWidth="827" pageHeight="1169" math="0" shadow="0">
      <root>
        <mxCell id="0" />
        <mxCell id="1" parent="0" />
        <mxCell id="Ev4hLwcJlVM7NLEiLkKL-18" style="edgeStyle=orthogonalEdgeStyle;rounded=0;orthogonalLoop=1;jettySize=auto;html=1;exitX=1;exitY=0.5;exitDx=0;exitDy=0;" edge="1" parent="1" source="Ev4hLwcJlVM7NLEiLkKL-1" target="Ev4hLwcJlVM7NLEiLkKL-2">
          <mxGeometry relative="1" as="geometry" />
        </mxCell>
        <mxCell id="Ev4hLwcJlVM7NLEiLkKL-1" value="点击保存" style="rounded=0;whiteSpace=wrap;html=1;" vertex="1" parent="1">
          <mxGeometry x="-200" y="190" width="120" height="60" as="geometry" />
        </mxCell>
        <mxCell id="Ev4hLwcJlVM7NLEiLkKL-34" value="" style="edgeStyle=orthogonalEdgeStyle;rounded=0;orthogonalLoop=1;jettySize=auto;html=1;" edge="1" parent="1" source="Ev4hLwcJlVM7NLEiLkKL-2" target="Ev4hLwcJlVM7NLEiLkKL-33">
          <mxGeometry relative="1" as="geometry" />
        </mxCell>
        <mxCell id="Ev4hLwcJlVM7NLEiLkKL-43" style="edgeStyle=orthogonalEdgeStyle;rounded=0;orthogonalLoop=1;jettySize=auto;html=1;exitX=0.5;exitY=1;exitDx=0;exitDy=0;entryX=0.5;entryY=0;entryDx=0;entryDy=0;" edge="1" parent="1" source="Ev4hLwcJlVM7NLEiLkKL-2" target="Ev4hLwcJlVM7NLEiLkKL-42">
          <mxGeometry relative="1" as="geometry" />
        </mxCell>
        <mxCell id="Ev4hLwcJlVM7NLEiLkKL-48" value="报告为生成中" style="edgeLabel;html=1;align=center;verticalAlign=middle;resizable=0;points=[];" vertex="1" connectable="0" parent="Ev4hLwcJlVM7NLEiLkKL-43">
          <mxGeometry x="-0.0889" y="-1" relative="1" as="geometry">
            <mxPoint as="offset" />
          </mxGeometry>
        </mxCell>
        <mxCell id="Ev4hLwcJlVM7NLEiLkKL-2" value="调后台生成报告的服务" style="rounded=0;whiteSpace=wrap;html=1;" vertex="1" parent="1">
          <mxGeometry x="20" y="190" width="130" height="60" as="geometry" />
        </mxCell>
        <mxCell id="Ev4hLwcJlVM7NLEiLkKL-21" value="" style="edgeStyle=orthogonalEdgeStyle;rounded=0;orthogonalLoop=1;jettySize=auto;html=1;" edge="1" parent="1" source="Ev4hLwcJlVM7NLEiLkKL-3" target="Ev4hLwcJlVM7NLEiLkKL-20">
          <mxGeometry relative="1" as="geometry" />
        </mxCell>
        <mxCell id="Ev4hLwcJlVM7NLEiLkKL-32" value="渲染页面" style="edgeLabel;html=1;align=center;verticalAlign=middle;resizable=0;points=[];" vertex="1" connectable="0" parent="Ev4hLwcJlVM7NLEiLkKL-21">
          <mxGeometry x="-0.325" y="-1" relative="1" as="geometry">
            <mxPoint x="1" y="13" as="offset" />
          </mxGeometry>
        </mxCell>
        <mxCell id="Ev4hLwcJlVM7NLEiLkKL-3" value="nodejs 服务" style="whiteSpace=wrap;html=1;rounded=0;" vertex="1" parent="1">
          <mxGeometry x="580" y="190" width="120" height="60" as="geometry" />
        </mxCell>
        <mxCell id="Ev4hLwcJlVM7NLEiLkKL-45" style="edgeStyle=orthogonalEdgeStyle;rounded=0;orthogonalLoop=1;jettySize=auto;html=1;exitX=0;exitY=0.5;exitDx=0;exitDy=0;entryX=1;entryY=0.5;entryDx=0;entryDy=0;" edge="1" parent="1" source="Ev4hLwcJlVM7NLEiLkKL-11" target="Ev4hLwcJlVM7NLEiLkKL-42">
          <mxGeometry relative="1" as="geometry" />
        </mxCell>
        <mxCell id="Ev4hLwcJlVM7NLEiLkKL-47" value="更新报告状态" style="edgeLabel;html=1;align=center;verticalAlign=middle;resizable=0;points=[];" vertex="1" connectable="0" parent="Ev4hLwcJlVM7NLEiLkKL-45">
          <mxGeometry x="0.1" y="-1" relative="1" as="geometry">
            <mxPoint x="15" y="1" as="offset" />
          </mxGeometry>
        </mxCell>
        <mxCell id="Ev4hLwcJlVM7NLEiLkKL-11" value="nodejs调后台服务&lt;br&gt;重置状态" style="whiteSpace=wrap;html=1;rounded=0;" vertex="1" parent="1">
          <mxGeometry x="295" y="450" width="120" height="60" as="geometry" />
        </mxCell>
        <mxCell id="Ev4hLwcJlVM7NLEiLkKL-28" style="edgeStyle=orthogonalEdgeStyle;rounded=0;orthogonalLoop=1;jettySize=auto;html=1;exitX=1;exitY=0.5;exitDx=0;exitDy=0;entryX=1;entryY=0.5;entryDx=0;entryDy=0;" edge="1" parent="1" source="Ev4hLwcJlVM7NLEiLkKL-20" target="Ev4hLwcJlVM7NLEiLkKL-3">
          <mxGeometry relative="1" as="geometry">
            <Array as="points">
              <mxPoint x="740" y="480" />
              <mxPoint x="740" y="220" />
            </Array>
          </mxGeometry>
        </mxCell>
        <mxCell id="Ev4hLwcJlVM7NLEiLkKL-29" value="否" style="edgeLabel;html=1;align=center;verticalAlign=middle;resizable=0;points=[];" vertex="1" connectable="0" parent="Ev4hLwcJlVM7NLEiLkKL-28">
          <mxGeometry x="-0.6348" y="1" relative="1" as="geometry">
            <mxPoint x="-16" y="1" as="offset" />
          </mxGeometry>
        </mxCell>
        <mxCell id="Ev4hLwcJlVM7NLEiLkKL-51" value="重试3次" style="edgeLabel;html=1;align=center;verticalAlign=middle;resizable=0;points=[];" vertex="1" connectable="0" parent="Ev4hLwcJlVM7NLEiLkKL-28">
          <mxGeometry x="0.1111" y="-3" relative="1" as="geometry">
            <mxPoint as="offset" />
          </mxGeometry>
        </mxCell>
        <mxCell id="Ev4hLwcJlVM7NLEiLkKL-30" style="edgeStyle=orthogonalEdgeStyle;rounded=0;orthogonalLoop=1;jettySize=auto;html=1;exitX=0;exitY=0.5;exitDx=0;exitDy=0;entryX=1;entryY=0.5;entryDx=0;entryDy=0;" edge="1" parent="1" source="Ev4hLwcJlVM7NLEiLkKL-20" target="Ev4hLwcJlVM7NLEiLkKL-11">
          <mxGeometry relative="1" as="geometry" />
        </mxCell>
        <mxCell id="Ev4hLwcJlVM7NLEiLkKL-31" value="是" style="edgeLabel;html=1;align=center;verticalAlign=middle;resizable=0;points=[];" vertex="1" connectable="0" parent="Ev4hLwcJlVM7NLEiLkKL-30">
          <mxGeometry x="-0.0182" y="-2" relative="1" as="geometry">
            <mxPoint as="offset" />
          </mxGeometry>
        </mxCell>
        <mxCell id="Ev4hLwcJlVM7NLEiLkKL-20" value="是否生成pdf链接" style="rhombus;whiteSpace=wrap;html=1;rounded=0;" vertex="1" parent="1">
          <mxGeometry x="600" y="440" width="80" height="80" as="geometry" />
        </mxCell>
        <mxCell id="Ev4hLwcJlVM7NLEiLkKL-37" style="edgeStyle=orthogonalEdgeStyle;rounded=0;orthogonalLoop=1;jettySize=auto;html=1;exitX=0.5;exitY=0;exitDx=0;exitDy=0;entryX=0;entryY=0.5;entryDx=0;entryDy=0;" edge="1" parent="1" source="Ev4hLwcJlVM7NLEiLkKL-33" target="Ev4hLwcJlVM7NLEiLkKL-35">
          <mxGeometry relative="1" as="geometry" />
        </mxCell>
        <mxCell id="Ev4hLwcJlVM7NLEiLkKL-38" style="edgeStyle=orthogonalEdgeStyle;rounded=0;orthogonalLoop=1;jettySize=auto;html=1;exitX=0.5;exitY=0;exitDx=0;exitDy=0;entryX=0;entryY=0.5;entryDx=0;entryDy=0;" edge="1" parent="1" source="Ev4hLwcJlVM7NLEiLkKL-33" target="Ev4hLwcJlVM7NLEiLkKL-36">
          <mxGeometry relative="1" as="geometry" />
        </mxCell>
        <mxCell id="Ev4hLwcJlVM7NLEiLkKL-33" value="任务" style="whiteSpace=wrap;html=1;rounded=0;" vertex="1" parent="1">
          <mxGeometry x="300" y="190" width="120" height="60" as="geometry" />
        </mxCell>
        <mxCell id="Ev4hLwcJlVM7NLEiLkKL-39" style="edgeStyle=orthogonalEdgeStyle;rounded=0;orthogonalLoop=1;jettySize=auto;html=1;exitX=1;exitY=0.5;exitDx=0;exitDy=0;entryX=0.5;entryY=0;entryDx=0;entryDy=0;" edge="1" parent="1" source="Ev4hLwcJlVM7NLEiLkKL-35" target="Ev4hLwcJlVM7NLEiLkKL-3">
          <mxGeometry relative="1" as="geometry" />
        </mxCell>
        <mxCell id="Ev4hLwcJlVM7NLEiLkKL-35" value="线程1" style="whiteSpace=wrap;html=1;" vertex="1" parent="1">
          <mxGeometry x="480" y="10" width="120" height="60" as="geometry" />
        </mxCell>
        <mxCell id="Ev4hLwcJlVM7NLEiLkKL-40" style="edgeStyle=orthogonalEdgeStyle;rounded=0;orthogonalLoop=1;jettySize=auto;html=1;exitX=1;exitY=0.5;exitDx=0;exitDy=0;" edge="1" parent="1" source="Ev4hLwcJlVM7NLEiLkKL-36">
          <mxGeometry relative="1" as="geometry">
            <mxPoint x="640" y="190" as="targetPoint" />
          </mxGeometry>
        </mxCell>
        <mxCell id="Ev4hLwcJlVM7NLEiLkKL-36" value="线程2" style="whiteSpace=wrap;html=1;" vertex="1" parent="1">
          <mxGeometry x="480" y="100" width="120" height="60" as="geometry" />
        </mxCell>
        <mxCell id="Ev4hLwcJlVM7NLEiLkKL-42" value="前端报告列表页" style="whiteSpace=wrap;html=1;" vertex="1" parent="1">
          <mxGeometry x="20" y="450" width="120" height="60" as="geometry" />
        </mxCell>
        <mxCell id="Ev4hLwcJlVM7NLEiLkKL-52" value="nodejs配置参数" style="whiteSpace=wrap;html=1;" vertex="1" parent="1">
          <mxGeometry x="930" y="110" width="120" height="60" as="geometry" />
        </mxCell>
      </root>
    </mxGraphModel>
  </diagram>
</mxfile>
